/* XPM */
static char *_359ffbc19cb444195ac367240b16f9f5zErn7Gq3sKbQ93t[] = {
/* columns rows colors chars-per-pixel */
"64 64 256 2 ",
"   c #040403",
".  c #050B0B",
"X  c #0B0B0C",
"o  c #080606",
"O  c #120A09",
"+  c #0B0C13",
"@  c #060A17",
"#  c #0A151A",
"$  c #151417",
"%  c #0F110F",
"&  c #231711",
"*  c #27241D",
"=  c #32251C",
"-  c #081427",
";  c #151724",
":  c #0B1533",
">  c #172538",
",  c #182A2C",
"<  c #2A2926",
"1  c #382B27",
"2  c #39322A",
"3  c #323034",
"4  c #1C211A",
"5  c #46352D",
"6  c #473A36",
"7  c #563C36",
"8  c #49332A",
"9  c #683A36",
"0  c #4B311F",
"q  c #5A453B",
"w  c #474436",
"e  c #67473A",
"r  c #6D4F3B",
"t  c #59411D",
"y  c #0C1B47",
"u  c #152949",
"i  c #102D50",
"p  c #2F394C",
"a  c #14376B",
"s  c #253D6C",
"d  c #513B46",
"f  c #743B41",
"g  c #18415A",
"h  c #314756",
"j  c #2A5579",
"k  c #2E4B71",
"l  c #2F7674",
"z  c #194574",
"x  c #494847",
"c  c #5A4847",
"v  c #515051",
"b  c #674A45",
"n  c #734D47",
"m  c #6A5448",
"M  c #745A4B",
"N  c #7B5D4D",
"B  c #765647",
"V  c #675753",
"C  c #785B54",
"Z  c #694E51",
"A  c #7D634D",
"S  c #7C6253",
"D  c #7A645B",
"F  c #6B615A",
"G  c #515671",
"H  c #6B5C68",
"J  c #526E74",
"K  c #776767",
"L  c #7B6A77",
"P  c #6C697A",
"I  c #3D423B",
"U  c #875A4B",
"Y  c #855D55",
"T  c #8E5753",
"R  c #83644C",
"E  c #826555",
"W  c #8B6B5B",
"Q  c #87675A",
"!  c #966959",
"~  c #95705B",
"^  c #A36C5C",
"/  c #8A6966",
"(  c #936A65",
")  c #987469",
"_  c #856C75",
"`  c #9A7A75",
"'  c #8B726F",
"]  c #A47B76",
"[  c #A57566",
"{  c #8C5A66",
"}  c #8C5439",
"|  c #3A877A",
" . c #36816D",
".. c #48887D",
"X. c #9C817B",
"o. c #A6857A",
"O. c #183C92",
"+. c #1D4D8F",
"@. c #295789",
"#. c #355B8B",
"$. c #285897",
"%. c #365D95",
"&. c #2F4D84",
"*. c #35648C",
"=. c #2C639C",
"-. c #38679A",
";. c #34708F",
":. c #2A5DA4",
">. c #315BA7",
",. c #2B65A9",
"<. c #3A6AA4",
"1. c #346BAC",
"2. c #3B6CAB",
"3. c #3566A5",
"4. c #3D72AC",
"5. c #3873A8",
"6. c #2D6BB3",
"7. c #2B6AB6",
"8. c #336DB3",
"9. c #336CB7",
"0. c #2D72B9",
"q. c #3D73B3",
"w. c #3374BC",
"e. c #3C7BBB",
"r. c #3876B8",
"t. c #2670A1",
"y. c #4E6792",
"u. c #71708E",
"i. c #446BA8",
"p. c #4274AC",
"a. c #4678AA",
"s. c #4175B3",
"d. c #437BB4",
"f. c #437CBB",
"g. c #487AB8",
"h. c #5673AB",
"j. c #7979A3",
"k. c #6C79BA",
"l. c #545A86",
"z. c #3475C2",
"x. c #367BC3",
"c. c #3B7CC3",
"v. c #3B7DCC",
"b. c #3A78C6",
"n. c #3174C9",
"m. c #437BC3",
"M. c #457CC5",
"N. c #5879D0",
"B. c #667BCC",
"V. c #89778A",
"C. c #89728A",
"Z. c #9F7EA0",
"A. c #388F89",
"S. c #3B81BA",
"D. c #39AAB5",
"F. c #36A19B",
"G. c #438B86",
"H. c #479789",
"J. c #4A9A93",
"K. c #52958C",
"L. c #4AA69A",
"P. c #54A69A",
"I. c #4EA28A",
"U. c #4481BE",
"Y. c #4C83BC",
"T. c #4A85B9",
"R. c #5488BB",
"E. c #558EB5",
"W. c #7287B3",
"Q. c #4AAAA3",
"!. c #57AAA5",
"~. c #5AB3A8",
"^. c #50B0B5",
"/. c #64B4A8",
"(. c #60ACA8",
"). c #65A597",
"_. c #3C83C5",
"`. c #3C83CC",
"'. c #3B87CC",
"]. c #3D84D1",
"[. c #3E8BD3",
"{. c #3B88D9",
"}. c #3892D1",
"|. c #3AA4D8",
" X c #4584C3",
".X c #4B84C4",
"XX c #4B8BC4",
"oX c #438BCD",
"OX c #4B8CCB",
"+X c #4585CA",
"@X c #548BC7",
"#X c #4D92CC",
"$X c #4D94C8",
"%X c #5895CA",
"&X c #4184D3",
"*X c #428CD5",
"=X c #498CD5",
"-X c #4894D7",
";X c #5395D3",
":X c #549CD3",
">X c #5C9BD3",
",X c #5C9BDC",
"<X c #5696D8",
"1X c #528BD4",
"2X c #6699C8",
"3X c #639DD3",
"4X c #659BD7",
"5X c #728FCC",
"6X c #57A6D9",
"7X c #47B7D5",
"8X c #52B5CE",
"9X c #64A2DC",
"0X c #69A5D8",
"qX c #75ABDB",
"wX c #7BACDB",
"eX c #74A6D5",
"rX c #7AB2DD",
"tX c #6DA1CC",
"yX c #569BE2",
"uX c #4997E3",
"iX c #5BA6E7",
"pX c #5DB6E3",
"aX c #50B3EF",
"sX c #65A9E5",
"dX c #74ADE3",
"fX c #66B8E5",
"gX c #78B7E6",
"hX c #69BBF7",
"jX c #72B2F3",
"kX c #7A9BE2",
"lX c #3ECAF0",
"zX c #4FC2D8",
"xX c #4DCCF2",
"cX c #65C3EB",
"vX c #66C5F8",
"bX c #78CCF5",
"nX c #4BE2F3",
"mX c #918292",
"MX c #A88886",
"NX c #AF8F8E",
"BX c #8B8EB2",
"VX c #A685A0",
"CX c #8994C7",
"ZX c #84AEDA",
"AX c #83B5E3",
"SX c #84BCEA",
"DX c #88BBE8",
"FX c #89AFEF",
"GX c #8CC3ED",
"HX c #85C7ED",
"JX c #8CCBF3",
"KX c #89C6F5",
"LX c #93CAF4",
"PX c #8AD1F5",
"IX c #92D3F5",
"UX c #8DCAED",
/* pixels */
"1.,.1.5.0.5.=.$.=.5.U.e.r.r.r.S.S.'.XXS.q.3.3.<. X#X:X#Xm.s.s.s.s.XX6XpXpX8X%XT.XX:X6XfXfX8X$XE.$XT.d.p.-.-.y.y.*.#.%.i.p.i.i.g.",
"1.6.1.0.e.r.3.=.=.q.r.r.r.5.e._.oXoX#X'.r.<.>.<.U.OX#X+Xf.s.s.s.s.T.$X:X%X$XXXXXXX:XpXfXpX0X6X$XT.T.d.a.i.i.-.-.*.*.y.g.g.g.h.M.",
"0.1.0.r.S.e.6.%.3.1.8.8.5.r.S.OXoX:X-XoXU.4.3.3.e.M.U.r.q.s.g.r.q.f.$X:X:XXX.X.XXX:X6XfXfXpX:XT.d.p.p.p.i.-.-.-.#.%.i.h.g.g.M..X",
"r.r.0.0.e.w.1.%.$.3.8.r.e._._.oX$X-X-X#XU.4.3.3.2.q.r.2.1.2.f.d.f.$X6XfX6X6XOXY.OX:X8XpXzX0X:XE.d.4.4.4.<.i.<.-.#.#.i.g.@XN.M.OX",
"w.w.0._.S.0.,.:.:.1.r.x._._.'.-XoX-X:XoX X2.>.3.8.e.d.8.q.s.f.e.S.6XcXcXcX8X:XU.OX6X6XcXfX6X:XXXg.p.4.s.p.<.<.-.#.#.i..X.X.X.X1X",
"w.S.0._.'._.1.,.,.8.x._.[.oX}.oX*X-X-X_.f.8.1.3.r. X+X Xq.q.e.f._.:XcXvXcXcX:XXXXX:XsXpXpX6X$XXXf.s.4.p.p.<.<.-.%.%.<..X.X.X.X;X",
"w.x._.'.'._.0.,.,.r._.[.oX'.+X'.c.+X`.c.r.8.3.1.e.OX;XoXb.q.r.s.U.:XpXcXvXpX:XS.U.;X6XpX8X6X#XY.d.q.p.s.<.<.-.<.-.%.<.Y..XM.M.#X",
"w.S.x.'.'._.5.t.1.e.[.[.oX+Xc.x.w.c.e.r.q.8.1.1._.-X:X*Xm.q.g.f. X$X8XpXcX6X#X Xr.OX,X8X6X;X$XU.d.4.4.p.4.<.<.<.-.-.<.Y.XXM.m..X",
"x.0.w.`.'.`.w.,.7.v.&XS._.`.z.c.9.b.c.q.,.3.8.1. XiX-X6Xm.e.d.r.S.oX6XpXiX6X$Xf.f.+X:X6X6X;XXXS.p.q.q.4.i.3.<.<.*.=.3.M..XM.s.M.",
"x.z.w.x._.w.8.%.8.8.w.*Xx.x.c.e._.].].=.u > k >.c.-X-XyX&XM.M.b.Y.;X6X6X6X6X_.+Xf.XX:X6X6X:X+Xe.q.d.q.q.4.<.<.<.-.-.<.U. Xm.s.m.",
"x.w.z.x.w.w.8.,.,.e._.].n._.x.'.{.-X2.p $ O + ; p i g k u u h u a j .XcXpX6X1Xf.U.oX:X6X6X;X$X+Xf. Xd.d.q.<.5.<.-.-.1.f.M.M.9.m.",
"_.x.z.x._._.9.>.1.c.'.].+Xe.[.uXOX@.> $ + @ X o   % . + + X o # - : y $XcXiX%X@X+X#X6X6X6X:X#XOXOXOX XU.s.<.2.2.3.3.2. XM.M.q.m.",
"x.z.x.`.'._.r.,.9.v.v.|.[.z.+X5.> . o X + . + X + + + ; ; ; ; ; ; # # y *.pX:XU.$X:XiXpXpX6X-X#X;X;XOX Xr.2.p.4.<.3.3.m.M.m.m.M.",
"n.z.x.`.[.oXw.,.7.&X*X}.}.{.j : o $ # . X X o %     o + X . . + $ + $ O - z -XoXOX,XpXpXpX6X:X<X:X:X#X Xd.2.4.4.-.3.3.m.m.m.m.=X",
"`.n.x.[.[.[.z.6.9.b.-X{.*X2.- o $ + X X o o X o X X o o .     o . + ; ; + : &.:XOX6XpXhXpXiX6X:X;X:X#XXXf.p.q.4.3.<.i.s.b.s.b.=X",
"`.v.x.'.[.[.w.8.9.'.uX*Xi.u . o   X .     % . @ X o o   . X + % O # - y - # y i.;X6XfXvXvXpX6X;X#X;XOXXXf.s.q.q.<.<.>.9.m.m.m.&X",
"`.`.'.[.[.'.e.6.z.`.-Xv.z ; o o O + X o o o X X $ . o O $ O O + $ + > u - # : a <X6XgXvXcXpX6X<XOX@XXX.Xf.s.s.4.5.<.2.b.m.b.m.M.",
"`.].{.[.[.'.w.7.9.{.{.=Xu o @   X X o o X % O o X X $ < = & % $ O ; : : . @ > y 3.6XcXcXcXsX:X;X#X1XXXXXU.e.d.q.5.5.2.e.m.q.m.M.",
"].].{.[.-XoXx.7.0.{.uX5.+ O   o   % % & = 1 2 = & 0 7 e e 9 8 6 3 ; : + @ # - y a $XfXfXhXpX>X;X;X;XOX.XU.f.f.q.4.4.q.f.M.M.b.M.",
"v.].[.[.-X*X`.w.z.{.f.u o o o   o & 1 8 9 U R r r U } T T U N M G G p + + - - ; y S.hXfXhXiX6X,X:X>X#X@XXX XU.T.q.5.q.m.M.M.M.&X",
"].].].-X-X-X'.0.w.{.i . . o @   & 0 7 e r ! [ [ ^ ^ ^ ! ! ! ! ( _ j.l.< o @ - + : @.iXhXjXfX9X6X6X9X>X%XOXOXOXXXq.q.q.m.M.&X=X=X",
"].v.].[.-X}.`.0.9.{.i O   .   % 1 8 e B T ^ [ [ ^ ~ ~ ~ ! ! ) ) C.j.W.l.; + @ : : y Y.hXfXjXsX9XsXsX>X%X#X@X%X$Xd.2.s.M.N.*X1XuX",
"].].v.&X*X*X`.z.0.[.&.o .   O 1 8 e r U R ! ! ! ! ! [ [ ! ! ~ ( ` u.j.5Xl.@ - : > - p.vXfXcXfX9X9XsX3X%X1X1X%XOXT.5.f.m.&X1XyXyX",
"].].`.'.}.&Xv.7.z.-Xs   . o $ 5 9 n B U R U Q ! ! ! ~ ^ ^ ! { Y L C.u.k.5Xk y - @ o i.bXfXfXjXsXsXsX9X>X>X%X;X$Xd.4.s.M.1X-XiXiX",
"].v.].*X{.-X`.0.9.=Xu   . X < 9 e b m b Y ( ] ] ] ] ] [ ` [ ! ! _ u.j.5XkXN.+.y .   a.bXbXcXsXqXsXqX9X>X>X%X%X$XT.p.d.+X1X-XiXiX",
"].v.{.*XuX[.`.0.9.{.>   X $ 5 r b b 1 2 x v K MXVXo.NXo.NXNXV._ H H u.5XsXsXv.a - @ %XbXbXbXjXqXsXsX0X9X3X9X>X>XT.d.f.N.1X<XiXaX",
"].].].{.uX-X`.7.z.{.a   + * 6 e 2 2 d x < 4 ; 6 ] NX] NXNXK p < * 3 p 5XhXjXv.O.: : bXbXbXbXgXdXdXdX0X3X3X3X9X>X@Xd.Y.@XN.1XiXiX",
"].v.].*X*X*Xv.z.n.uX*.o . = c 6 3 v ' / ) D 7 6 T [ NXNX) b 8 w V Z x &.hXhXv.O.y j PXbXbXbXbXgXjXgXqXtX3X3X0X3X%XT.g.@X1XyXyXiX",
"&X&Xv.].].].b.9.0.{.M.; . * b 6 C K d 2 2 7 b b r ! o.` B e 9 C / _ / l.uXvX*Xa a R.PXbXHXbXbXgXgXgXdX4X3X3X0X3X%XY.B.@X1X1XyXyX",
"&X&X&X].v.v.z.7.z.{.*X> o < b c E q 3 x ; x c 0 7 U [ _ t 0 x 3 * 6 Z _ yXxXn.a a cXbXbXPXKXgXAXgXgXqXeX0XeXeX0XE.Y.Y.@X1X1XyXyX",
"*X&X&X].].`.z.7.7.v.*Xa o 1 b C E 7 8 c 3 Z c 7 7 U U C.e 0 v > 3 G u C 4XxXm.y s.HXPXbXbXHXbXAXgXdXwXeXeX0XqX0X2XR.@X1X1X,X,XiX",
"uX*X&X*X*X[.v.z.1.n.{.a o 6 m D Q C n r W Y C Z Z U ( BXH r 9 e c G G Z 5XbXO.i dXPXPXHXPXKXSXrXFXAXwXeXqXrXdX0X3XR.@X1X4X,XyXsX",
"uX*X].*X-X*Xx.0.z.2.G d + w N C R ( ] ] ] ) E B n ^ VXFX5XK B ( U _ W.C.CXvXO.s LXKXKXKXPXKXSXFXSXgXAXdXqXwXdXqX2X%X%X3X4X,XiXsX",
"uX*X{.*X-X-X[.w.9.#.q Z d 7 M A ) o.o.o.o.` W n e T ] ZXjXCX' [ ` ` V.CXdXvXs h.LXDXKXPXJXKXGXDXGXSXAXAXqXqXwXqXtX%X6X9XsX,XiXsX",
"iX*X].[.uX-X+Xw.9.l.r T n 7 V M ` MXNXNXo.) Q n n ! ] C.5XmX[ ] MXMXMXZXjXvXk W.AXLXKXPXJXJXKXLXSXDXDXrXwXwXqXtXtX%X6X9X9XiXsXhX",
"yX*X].[.[.-X'.9.9.l.r / 7 6 Z ( X.MXMXMX` ` ( B ^ NXNXZ.FXBX[ o.MXMXMXBXFXhX.XP 2XLXLXPXJXPXGXUXLXDXDXAXwXwXwXeX2X2XtX9X9XsXsXiX",
"uX*X].].-X[.v.0.7.l.n V 6 6 Z ' o.MXo.o.] ) Q 9 n MXMXBXu.V.) V.o.MXMXCXjXhX5Xu.W.IXIXLXLXLXGXLXDXDXDXZXZXZXqXeX2X2X3X4X9X9XsXiX",
"-X[.&X&X*X[.x.9.n.i.n 9 b 1 n ~ X.o.] o.] ) Y n 9 C ( P Z N [ NXo.MXMXCXFXyXu.BXZXLXIXIXUXUXLXGXDXLXDXZXwXwXwXeX2X2X3XsX9X,XyXiX",
"-X&X].&X[.'.z.7.:.9.V 9 b 3 r E ) ) ) ) ( Q Y n d B { v u.L ) ] o.mXVX5X5Xg.n BXLXLXIXIXIXIXLXGXDXDXDXAXZXwXqXeX2X2X3X9X4X4X4XyX",
"-X&X&X&X].'.w.7.,.n.G n V 3 q / ' ) ( ! Y b 7 8 3 8 e 3 > d V ' o.mXBXBX5Xh.9 BXLXJXPXPXIXIXUXGXLXDXAXZXwXZXqXeX2XR.,XkX9X4X1XyX",
"uX].M.v.v.v.w.,.>.n.8.c } 6 w C ( Q W C q 7 Z Z Y { ( { 7 d > v Z.mXBXCXM.y.C ZXLXLXJXIXIXIXHXLXDXDXDXAXZXwXeXeX2XR.2XsX4X>X<XyX",
"-X].v.v.{.v.w.7.,.7.n.-.l.G I S / Q W M e 7 7 9 9 f f 9 d d 7 d j.BXBX5X1X5XW.FXLXGXJXJXIXUXGXUXGXGXDXAXwXwXwXtX2XR.>XsX4X4X>XiX",
"].].&X].].v.9.,.,.n.n.{.&X3.w F C C Q Q Y n 9 n { { Y { H d b { V.BXj.k.N.kXSXFXLXJXJXIXIXUXUXDXGXDXSXAXZXqXqXeX2X2X2X4X9X4X,XsX",
"].v.M.{.{.`.9.>.,.w.v.{.-X+X3 v V m Q W Q / ( ( T U U _ C.C._ _ mXj.j.g.g.ZXHXDXGXKXJXJXUXUXGXGXDXDXAXZXwXwXqXqX2XE.@X3X4X4XyXyX",
"b.b.v.].'.x.0.:.7.7.z.].[.+Xp 6 b C M E E ( ` ) ( T U ( / Z.C._ j.W.h.U.bXUXDXHXDXKXKXJXJXHXGXAXDXDXZXwXZXwXwXeXE.R.@X%X,X>X<XyX",
"x.z.z.`.`.x.7.:.:.0.z.x.{.'.p 3 c V m N Q Q ~ ) ( ( ! ^ W _ _ ).j.u.y.%XbXDXAXgXDXSXGXKXHXKXHXDXDXAXrXqXeXeXtX2XW.g.@X3X<X<X,XyX",
"x.z.0.n._._.6.:.:.7.n.n.x.0.x 5 3 c m M S ( ( ) ) ] ` ` / _ V.u.j.y.R.gXgXdXDXSXAXSXSXHXGXHXgXAXZXZXwXeXeXtXtX2XR.T.@X%X3X1X1X<X",
"`.0.7.0.z.w.7.$.$.t.7.z.7.1.x 2 < 1 q M S ' Q ( ] ` ` V.V.mXj.k.y.$.,XdXZXdXwXwXAXFXgXHXgXHXAXrXwXwXwXtXeXtX2XE.E.g.g.%X<X#X=X-X",
"v.c.6.0.0.0.7.$.:.,.7.4.t.j I w 2 2 2 6 c D D Q Q ' _ _ V.BXW.y.k g.sXqXrXqXrXqXrXgXAXbXbXgXrXrXeXeXtXtX2X2X2X@XR.a.T.%X<X1XoX1X",
"c.w.7.0._.0.t.$.+.,.;.l g i t q q 6 2 < 2 v V m c V v V L l.G k l.@XiXfXgXfXdXtXqXrXrXgXrXgXrXrXtXtXtX2X2X2X2X2Xh.a.T.1X1XOX=X1X",
"w.7.6.w.0.7.,.$.$.7.;.< # # w e q q q 3 * < 3 3 3 w 5 2 p p k G y.B.}.cXdXfXqX0X0XdXfXgXrXrXqX0XtX2X2X2X2X2XE.%Xa.a.d.XX1XOX-X<X",
"6.,.,.9.0.,.,.+.+.7.l %   * c r m q c 6 3 2 < < 3 * < < > k P G y.k.*.zXfX0X3XtX0XqXrXrXbXcX0XtX2X2X2XE.E.R.@XT.a.5.p.Y.OX=XuXiX",
"9.,.:.6.0.7.:.+.@.;...# O < c r M M b q c w 2 2 2 2 2 p G J G V P k.g zXxXfXiX>X3X0XfXgXfXgX0XtX2X2X%XE.R.T.a.a.-.-.<.q.m.+X-XiX",
"0.,.:.:.,.,.@.+.*.G.I.# & 1 e r M M D m q m M r q q x v G P H K u.h.g xXnXxXaX6X6X0XfXfXgXfXpX3X2X%XR.T.T.a.a.5.-.*.3.q.c.+X-XiX",
"0.6.,.$.$.@.j l K.G.P.< & 2 q m A M S S M F S D S S F H P K L L u.a.h xXxXxXxXD.8X7XpXpXfXpX9X6X%X@XR.T.d.a.-.-.*.*.3.q.m.+X&X-X",
"6.,.$.$.$.;.A.H.H.A.~.w O 6 q m A S Q M S S S ' ~ W F F P K K L u.h.h nXxX7XcX^.|.|.7XpXpX0X6X%XXXXXT.T.a.i.y.*.#.@.-.r.+X`.+X&X",
">.:.;.;.l A.G.!.L.J.J.K.O 1 q n A E Q S M D m Q ) / F F K / / K W.v J nXxXzX/.^.7XD.D.7XQ.7X6XU.@XT.T.T.q.-.;.#.j %.3.r.e.f.b.v.",
"@.;.A.G.....H./.Q.H.J.)., = q m M A W S M S M m E m m F S S K K u.3 !.nXxX8X/.8XzXD.L.nX7X!.8X6XS.S.d.a.;.y.%.@.j @.=.8.4.,.8.b.",
";.G.I...| ..K./.!.P.J.~.J & e r m A Q E A M m e q q r A A A D K Z x zXxX7X| ~.^.D.^.| D.7X7X^.8X7XU.;.5.<.*.*.*.j &.@.%.1.1.1.0.",
"..H.K.G.| A.Q.~.(.~.J.L./.< w m A A S E E A A m r m A r A A M N t ..zXzXA.l ^./.7XQ.A.A.D.D.xXF.8X7X}.<.#.,.=.j k k @.>.1.1.,.r.",
"H.J.L.J.| l Q.~.~.!.P.P.~...= R A m A E R A S S N A A N R A r r w ~.L.L.l L./.~.zXI.A.| J.A.7X7XI.^.zX|.5.=.=.j k s j =.,.,.8.m.",
"..I.H.K. .l !.!.~.!.Q.P.P./.w e A r A A E A A M r B A Q R r A e ..~.H.H.A.~./.^.^...|  .J.Q.L.xX^.I.^.xXlX}.*.@.g s k #.=.0.w.v.",
"H.I.| | ..| (.~.~.~.P.P.!./.K.w m A A A ~ W A M A A Q W U r m v ~.~.L.P.~.Q.~.Q.F.A...A.A.Q.L.^.7XL.I.Q.7XnXaX-.a u s j +.=.8.S.",
"G.J.l | | G.(.(.~./.P.P.Q././.J w M A ~ W W ~ W Q W ~ R R B w ..~.L.~.Q.~.^.D.A.F.| A.F.L.L.L.Q.7XJ.L.P.L.7XlXxXG.i i h z &.$.$."
};
