/* XPM */
static char *c57713ff3658459fa06df545449cbce1GbIhSyGEsfTmmaFT[] = {
/* columns rows colors chars-per-pixel */
"64 64 87 1 ",
"  c #464645",
". c #474946",
"X c #484947",
"o c #4C4C4C",
"O c #4F514E",
"+ c #4D4E50",
"@ c #4F5151",
"# c #545554",
"$ c #575957",
"% c #585956",
"& c #565759",
"* c #575958",
"= c #5C5C5B",
"- c #615E5C",
"; c #5E605F",
": c #61615E",
"> c #615F60",
", c #5F6160",
"< c #646362",
"1 c #696663",
"2 c #6A6966",
"3 c #6E6C69",
"4 c #716E6C",
"5 c #72716E",
"6 c #757472",
"7 c #797774",
"8 c #7A7976",
"9 c #7E7C79",
"0 c #817E7B",
"q c #7F807B",
"w c #82817E",
"e c #858482",
"r c #898684",
"t c #8A8986",
"y c #8D8C89",
"u c #908E8B",
"i c #92918E",
"p c #959391",
"a c #999593",
"s c #9B9996",
"d c #9E9C9A",
"f c #A19E9C",
"g c #A3A19E",
"h c #A5A4A2",
"j c #A9A6A4",
"k c #AAA9A6",
"l c #ADABAA",
"z c #B1AEAD",
"x c #B3B1AE",
"c c #B5B3B2",
"v c #B9B6B5",
"b c #BAB9B6",
"n c #B9B7B8",
"m c #BDBBB9",
"M c #C1BEBC",
"N c #C3C1BF",
"B c #C5C3C2",
"V c #C9C6C4",
"C c #CBC9C6",
"Z c #CDCCCA",
"A c #D1CECC",
"S c #D3D1CE",
"D c #D5D4D2",
"F c #D9D6D5",
"G c #DAD9D6",
"H c #D9D7D8",
"J c #DDDCDA",
"K c #E1DFDD",
"L c #E2E0DE",
"P c #E1DFE0",
"I c #E5E4E3",
"U c #E8E6E4",
"Y c #E6E8E5",
"T c #E9E9E6",
"R c #E6E7E9",
"E c #E9E7E8",
"W c #E7E8EA",
"Q c #EDECEB",
"! c #F0EFED",
"~ c #EEF0EE",
"^ c #F1F1EF",
"/ c #EDEEF0",
"( c #EFF1F1",
") c #F3F3F2",
"_ c #F8F7F5",
"` c #F8F8F6",
"' c #F8F8F8",
/* pixels */
"_))^^))^~^_^~Q~^QQQ~YYYYYLYLPHHJJJJRRRRRYYYTQ!!Q^~~^')//'))''')/",
"~))___`_^^^^~~^Q~YYYYYLLGFGGHHDDHDDHDDHJYYYTTQQQ^~^^()/))))))'''",
"ITQ^^^^^_^^~^^~TRRYLJGDDAZCVNNNCNNBBCCZDDGKYLLQQQ^)))())'''/QEEQ",
"TQ^~Q~^)___~~QQTYYJDSCVNmbvcxllxllxxxnnNNNSGLLLQW~))))))////QQ/(",
"YTQQTT~^^_)^QQTTPJDZBnnnxlkhgddddghkkklcxbNCSGLYWQ()__)Q/QQQQWRI",
"KLTTQTTT~^_^^QTTJDZCnnlxlhgdpiyyyipdghkxxbNNZDLYW~(()')Q)/QEIJDA",
"YQQ^^^^Q~^^~~YLJDZCmnxllkhspiteetqtisgklxxbmNSGGIWQQ/))//(((QQWR",
"^~^~^~~~~QTYLKDZCBmnlljjdpyytyyyyytyisdhkklxbNNNSJIPIQ(/((/(/Q//",
"PJHSZZZZAZVNbcxxxlkhhdppyttrtuuiyyyytyyupsfghhlcccnmBCAADSDDHJJJ",
"ccxccxzzlkkjgggdpiyyytteytrrrrtrttyqtttyttyuiipsfhjjklzlzzzzcvvb",
"iiiyyyrrtttytteeyytyttttrewwew00wqqqqeqeiwwwttttrtyyytrryyyipppi",
"spsppiuyyyyyytttttrrttttyyyyytrriwyyttyywywytttttyyiyuttpppppppp",
"mnnnMMMMmbbvnnnnbnbbbbnnnnncMMzMmbbbbbnnNmbbbmmmnnnnMMMMvMvMnnnm",
"IIIYPKKKIIIIYYYYIYYYIIYUPRUEEEEUYYYYYYYWLYYYYLPIRUIYKUKKIIUUYIYY",
"^^~^!EULIIIIIIKKKKLILLJPJJHJHKHHJJJJJJLJLLLYYYIPLIIIIKPKIUE!!!Q^",
"GFGDSACBAAAZVBMbxcbbcxcllkjjhjjjhhhkkkllxxxxcncxMBVCZAAZVCDGKGGG",
"VBVMMMMMMcczzkhfhfdaaaauuurrrr00yeeetyiiippsdggkkkzzzcMMMMMMBVVV",
"VNMMVMMMvvczzzljghgggffaaappauuaiiiipsddgggdghklzzzccvvMMMMMBMMM",
"MMMMMMcMvvcxMzzlMzzjjzzjllkkjjjjllkkkkkhhklxxxxxzzcccvMvcMMMMMMM",
"vvcczzMcMvvvcMMMMMMMMMMVVMMMMMMMmmmNNNNmNNNbbbmNMMcMvMvvcczMMzMz",
"zzzzzzcMbbMMMNNNVVVAAVVMAAASDDSFDDDSSZZCNCZZZNNCMMMMMvvvczzzjzzz",
"zlzzzzzzvbbMNNNVVVVAAVVMSDFFKGJJJJJDDSZCnBZDSSZCVVMMMvccczlzjzzj",
"MMMMNNMMNBVAAASSAAVAFJPPKLLLKKLLGGJPYYYLYLJZNNZGZAAAVMMMVBMMMMMM",
"HHKKKKKKFJLLUUTTEPPE!EEEUQ!!!!~~(~((~~Y~LY~~TLLQUEEUKKGKPPKKKHAV",
"PUU!Q^^)^)_^^^^^!!!_~QQ)^QQQ(((~~(()(~~~Q!^))^)))^!^__)^EE!QUUUE",
")!!!QTQT!QQ!Q~QTUUIPKHJLJJJLLIYKLLJGJJLLJJLLLLLL!!T!TQ!QEEQ!Q!!!",
"GGGGGGFFFSSDGDFSFSSSZCCZZVNmmmmmmNNBBBCCCZZDFDDDDDFFFDFGKDKHGGKK",
"DDFFGGGJFFFFDFDDSFSSSZZZCCVVVBCZCBBNBCZDZZSDDDDDDGGFFFGKFDADDDKF",
"UUTTTTTTTTTTTTTTPEUUIUUILYYQYYLKKYYYYYLLLQLLQLTLTTTLLQQLQTUUUUTT",
"))^^^!!!Q~^^^^^^!__)!_))_)~YILLLLYY~``~~^!^^^^_^^^)^^^^Q))^^!)^_",
"^^^^^)^^^^TT~QYLEEPKKJJJJDZVVZSDDZBNCSLYLJJLLLLQLQ^!U^^)^^))^)))",
"!T!T!TQQQLFGJJSVFSANmMMmbcxllllklllxcbccNmNNADDDZDLLGLTQTQ!!TUTT",
"EEEEEEPHFHHHCVCCNNNvxxggggsaaaaaappaagggllcvMNNNFNSFKGFGUT!!UUT!",
"AAHPEPPHZAACVVVVNNxxzlggssspaapiapppassggglxxxNNNNNNGNNGLLLKSSCC",
"vvMVAVBMMMnMcczlgghgssdauuyyyyttytytwiiaasdggkkkxNNbNxNNNNNNMbxx",
"jjzjzjjhhffdddapswawiwwwwwqqq868q8qqwwwwtyyywaaawwsffffkgkxkkxMw",
"u00rrrrr00000000wq5q6665775544454556w05566666688wwwwwwwwwwwwwwww",
"0000666624205544442133335555446655555444333343434w214455qqqqw4ww",
"001066664000666655q578876657667967665555887777880w4w5q551qq11ww1",
"->>%>124243156545q55666677q788877777077w6665666424555422-%11111-",
"&->>>>>>,===,,>>-1:::::;-<1112<<:2:222<:==<<--><----====-----1--",
"##%%&&##&#%=&==>%----:::=-:==,:=::;:::==:::=---====%%%%%%%%%%O%O",
"o++ooo  oXoO@###%%%%%;:=><>-,<<<::::<::-;:=%%##%##OOoX  ...XXOO%",
"oooooo  oo@@#*&*O%OO%=%%======;;:;:;=-==%%%#O###=%%OOoXo..XOOXO%",
"##@@++++##@###*%####$%%%***=%###;#%%*&&&#%%##@##O#######OOOOOOOO",
"&&=&-&->$$#@@#####%#$%%%&##*&###O######&&&&%####O#####$#:%;;--%%",
">>>=>->>,,,;;*&&#%=%$O#OoXoooooooOOoooo+O#&&%###==-=:;;;:::::1--",
">>>>>->>;;,,==###==%OOoOo oo###=OOOOooXooO#&###O===-<::::::::---",
">->-::::::1:--%O####ooXXXO$%==<4==>=&++X++++#&&O*=-:;:::::-11---",
"42323::::::-----=*=&%OOOXXoOX XOooo@++oX+@&&%===--::;;;%1:111444",
"43333222:1::-----==-:;%%;%;%&%&#&&&&&&==&,,,==-::::::21232441-40",
"8870qqqq5553111->-=>:;:%%%%;=--=>>>>>>--=>>><>::::123665ww000000",
"53555767wwwww05544442::::::221>-<><>--->><<24454w0qqqqqq01000010",
"455555556qqwww00446442423421421-33333-4433345504qwqqq88610-01111",
"rreeweewwwwwwwww000507060070008000990007878800009wweewee0w0wwwww",
"mmmmMbbbvxzzxkgsfffffauuyyyyuutttyyyuurupasssfgkjklzlxcnMMMMMMMM",
"~Q~~QQQWLJLTLDZCGAZDNMMMvvvxzllxzzczxvMMMMNZZZAFVDLYJGKYU!!T!!T!",
"~~TWQ~^)!!^__^QQ!LLLLGGFFVMNCSZNCVVMNAAAASKLUUUUT~_)~Q~)!!!!!T!!",
"GGGGGKIITYT^^^^)_^Q!!QLQIKDDGGGDKKFFKKLUUWWQ!^__))~~QQWQLLKGFGFJ",
"DDDDGJIITYTT~~^)_^^YT!!LIIULGFGLKGFFKLL!Q)QQ!!_^_~~QTQWILKFFFSFF",
"LPPIIRRR/QQ~^^)))`)~~^~~!UIIYQQQWWIRL!!!/())`'(W((((((QQEUUPLLLL",
"YYWWQQQWQQQ~^^~)^)`^^^^_)!QQ)))^')))____())'`'(~~~~~QQQQWWWEUULL",
")()))))(((())))~~QQ~~~~~~^^~~QQQ///W/QQ/)(//((('((((Q(/)))))^)_^",
"))))))/))))~~^~~~QYQ~TYY~TYTWYYURRWWREW/WRR((W~(((~(())))))!_)__"
};
